<?xml version="1.0"?>
<!-- Generated by SVGo -->
<svg width="300" height="264"
     viewBox="0 0 300 264" fill="none" role="img"
     xmlns="http://www.w3.org/2000/svg"
     xmlns:xlink="http://www.w3.org/1999/xlink">
<style type="text/css">
<![CDATA[

				.header { font: 600 18px 'Segoe UI', Ubuntu, Sans-Serif; fill: #2f80ed; animation: fadeInAnimation 0.8s ease-in-out forwards; }
				.lang-name { font: 400 11px "Segoe UI", Ubuntu, Sans-Serif; fill: #434d58; }
				.stagger { opacity: 0; animation: fadeInAnimation 0.3s ease-in-out forwards; }
				#rect-mask rect { animation: slideInAnimation 1s ease-in-out forwards; }
				.lang-progress { animation: growWidthAnimation 0.6s ease-in-out forwards; }

				@keyframes slideInAnimation { from { width: 0; } to { width: 250px; } }
				@keyframes growWidthAnimation { from { width: 0; } to { width: 100%; } }
				@keyframes fadeInAnimation { from { opacity: 0; } to { opacity: 1; } }
			
]]>
</style>
<rect x="0" y="0" width="299" height="263" style="rx:4.5; fill:#fffefe; stroke:#e4e2e2" />
<g transform="translate(25, 35)">
<text x="0" y="0" class="header" >Most Used Languages</text>
</g>
<g transform="translate(25, 55)">
<defs>
<mask id="rect-mask" x="0" y="0" width="250" height="8" ><rect x="0" y="0" width="250" height="8" style="fill:white; rx:5" />
</mask>
</defs>
<rect x="0" y="0" width="131" height="8" style="fill:#4F5D95; mask:url(#rect-mask)" class="lang-progress" />
<rect x="130" y="0" width="62" height="8" style="fill:#663399; mask:url(#rect-mask)" class="lang-progress" />
<rect x="192" y="0" width="19" height="8" style="fill:#e34c26; mask:url(#rect-mask)" class="lang-progress" />
<rect x="211" y="0" width="16" height="8" style="fill:#f7523f; mask:url(#rect-mask)" class="lang-progress" />
<rect x="226" y="0" width="9" height="8" style="fill:#00ADD8; mask:url(#rect-mask)" class="lang-progress" />
<rect x="235" y="0" width="6" height="8" style="fill:#f1e05a; mask:url(#rect-mask)" class="lang-progress" />
<rect x="240" y="0" width="4" height="8" style="fill:#3572A5; mask:url(#rect-mask)" class="lang-progress" />
<rect x="244" y="0" width="4" height="8" style="fill:#178600; mask:url(#rect-mask)" class="lang-progress" />
<rect x="247" y="0" width="2" height="8" style="fill:#c1d026; mask:url(#rect-mask)" class="lang-progress" />
<rect x="248" y="0" width="1" height="8" style="fill:#f0c040; mask:url(#rect-mask)" class="lang-progress" />
<rect x="249" y="0" width="1" height="8" style="fill:#00B4AB; mask:url(#rect-mask)" class="lang-progress" />
<rect x="249" y="0" width="1" height="8" style="fill:#F05138; mask:url(#rect-mask)" class="lang-progress" />
<rect x="249" y="0" width="1" height="8" style="fill:#b07219; mask:url(#rect-mask)" class="lang-progress" />
<rect x="249" y="0" width="1" height="8" style="fill:#3178c6; mask:url(#rect-mask)" class="lang-progress" />
</g>
<g transform="translate(25, 80)">
<g transform="translate(0, 0)">
<g class="stagger" style="animation-delay: 450ms" >
<circle cx="5" cy="6" r="5" style="fill:#4F5D95" />
<text x="15" y="10" class="lang-name" >PHP 52.26%</text>
</g>
</g>
<g transform="translate(150, 0)">
<g class="stagger" style="animation-delay: 550ms" >
<circle cx="5" cy="6" r="5" style="fill:#663399" />
<text x="15" y="10" class="lang-name" >CSS 24.68%</text>
</g>
</g>
<g transform="translate(0, 25)">
<g class="stagger" style="animation-delay: 650ms" >
<circle cx="5" cy="6" r="5" style="fill:#e34c26" />
<text x="15" y="10" class="lang-name" >HTML 7.48%</text>
</g>
</g>
<g transform="translate(150, 25)">
<g class="stagger" style="animation-delay: 750ms" >
<circle cx="5" cy="6" r="5" style="fill:#f7523f" />
<text x="15" y="10" class="lang-name" >Blade 6.09%</text>
</g>
</g>
<g transform="translate(0, 50)">
<g class="stagger" style="animation-delay: 850ms" >
<circle cx="5" cy="6" r="5" style="fill:#00ADD8" />
<text x="15" y="10" class="lang-name" >Go 3.51%</text>
</g>
</g>
<g transform="translate(150, 50)">
<g class="stagger" style="animation-delay: 950ms" >
<circle cx="5" cy="6" r="5" style="fill:#f1e05a" />
<text x="15" y="10" class="lang-name" >JavaScript 2.29%</text>
</g>
</g>
<g transform="translate(0, 75)">
<g class="stagger" style="animation-delay: 1050ms" >
<circle cx="5" cy="6" r="5" style="fill:#3572A5" />
<text x="15" y="10" class="lang-name" >Python 1.40%</text>
</g>
</g>
<g transform="translate(150, 75)">
<g class="stagger" style="animation-delay: 1150ms" >
<circle cx="5" cy="6" r="5" style="fill:#178600" />
<text x="15" y="10" class="lang-name" >C# 1.20%</text>
</g>
</g>
<g transform="translate(0, 100)">
<g class="stagger" style="animation-delay: 1250ms" >
<circle cx="5" cy="6" r="5" style="fill:#c1d026" />
<text x="15" y="10" class="lang-name" >Twig 0.58%</text>
</g>
</g>
<g transform="translate(150, 100)">
<g class="stagger" style="animation-delay: 1350ms" >
<circle cx="5" cy="6" r="5" style="fill:#f0c040" />
<text x="15" y="10" class="lang-name" >Smarty 0.23%</text>
</g>
</g>
<g transform="translate(0, 125)">
<g class="stagger" style="animation-delay: 1450ms" >
<circle cx="5" cy="6" r="5" style="fill:#00B4AB" />
<text x="15" y="10" class="lang-name" >Dart 0.16%</text>
</g>
</g>
<g transform="translate(150, 125)">
<g class="stagger" style="animation-delay: 1550ms" >
<circle cx="5" cy="6" r="5" style="fill:#F05138" />
<text x="15" y="10" class="lang-name" >Swift 0.05%</text>
</g>
</g>
<g transform="translate(0, 150)">
<g class="stagger" style="animation-delay: 1650ms" >
<circle cx="5" cy="6" r="5" style="fill:#b07219" />
<text x="15" y="10" class="lang-name" >Java 0.04%</text>
</g>
</g>
<g transform="translate(150, 150)">
<g class="stagger" style="animation-delay: 1750ms" >
<circle cx="5" cy="6" r="5" style="fill:#3178c6" />
<text x="15" y="10" class="lang-name" >TypeScript 0.02%</text>
</g>
</g>
</g>
</svg>
